<?xml version="1.0" encoding="utf-8"?>
<!-- Generator: Adobe Illustrator 21.1.0, SVG Export Plug-In . SVG Version: 6.00 Build 0)  -->
<svg version="1.1" id="圖層_1" xmlns="http://www.w3.org/2000/svg" xmlns:xlink="http://www.w3.org/1999/xlink" x="0px" y="0px"
	 viewBox="0 0 20 20" style="enable-background:new 0 0 20 20;" xml:space="preserve">
<style type="text/css">
	.st0{fill:#881126;}
</style>
<g>
	<path class="st0" d="M20,1l-9,9l9,9l-1,1l-9-9l-9,9l-1-1l9-9L0,1l1-1l9,9l9-9L20,1z M4.9,10c0,0.4-0.2,0.8-0.5,1.1
		c-0.3,0.3-0.7,0.5-1.1,0.5c-0.4,0-0.8-0.1-1.1-0.4C2,10.8,1.8,10.4,1.8,10c0-0.4,0.1-0.8,0.4-1.1c0.3-0.3,0.7-0.4,1.1-0.4
		c0.4,0,0.8,0.2,1.1,0.5C4.7,9.2,4.9,9.6,4.9,10z M10,1.8c0.4,0,0.8,0.1,1.1,0.4c0.3,0.3,0.5,0.7,0.5,1.1s-0.1,0.8-0.4,1.1
		S10.4,4.9,10,4.9c-0.4,0-0.8-0.2-1.1-0.5C8.6,4.1,8.5,3.7,8.5,3.3c0-0.4,0.2-0.8,0.5-1.1C9.3,2,9.6,1.8,10,1.8z M10,15.1
		c0.4,0,0.8,0.1,1.1,0.4c0.3,0.3,0.5,0.7,0.5,1.1s-0.1,0.8-0.4,1.1s-0.7,0.4-1.1,0.4c-0.4,0-0.8-0.2-1.1-0.5
		c-0.3-0.3-0.4-0.7-0.4-1.1s0.2-0.8,0.5-1.1C9.3,15.3,9.6,15.1,10,15.1z M18.2,10c0,0.4-0.2,0.8-0.5,1.1c-0.3,0.3-0.7,0.5-1.1,0.5
		c-0.4,0-0.8-0.1-1.1-0.4c-0.3-0.3-0.5-0.7-0.5-1.1c0-0.4,0.1-0.8,0.4-1.1c0.3-0.3,0.7-0.4,1.1-0.4c0.4,0,0.8,0.2,1.1,0.5
		C18,9.2,18.2,9.6,18.2,10z"/>
</g>
</svg>
